<?xml version="1.0" encoding="utf-8"?>
<!-- Generator: Adobe Illustrator 23.0.5, SVG Export Plug-In . SVG Version: 6.00 Build 0)  -->
<svg version="1.1" id="Layer_1" xmlns="http://www.w3.org/2000/svg" xmlns:xlink="http://www.w3.org/1999/xlink" x="0px" y="0px"
	 viewBox="0 0 200 300" style="enable-background:new 0 0 200 300;" xml:space="preserve">
<style type="text/css">
	.st0{fill:#6148DE;}
	.st1{fill:none;stroke:#6148DE;stroke-width:3.7;stroke-linecap:round;stroke-linejoin:round;stroke-miterlimit:10;}
	.st2{fill:#FFFFFF;stroke:#6148DE;stroke-width:3.7;stroke-linecap:round;stroke-linejoin:round;stroke-miterlimit:10;}
	.st3{fill:none;stroke:#6148DE;stroke-width:3.7;stroke-miterlimit:10;}
	.st4{fill:none;stroke:#6148DE;stroke-width:1.5;stroke-miterlimit:10;}
	.st5{fill:#6148DE;stroke:#6148DE;stroke-width:2;stroke-miterlimit:10;}
	.st6{fill:#6148DE;stroke:#6148DE;stroke-miterlimit:10;}
	.st7{fill:#6148DE;stroke:#6148DE;stroke-width:2.5;stroke-miterlimit:10;}
</style>
<g>
	<path class="st0" d="M179.1,230.1c-1.1-3.3-2.2-6.7-3.3-10c-0.3-0.9-0.1-1.1,0.8-1.1c1.1,0,2.2,0,3.3-0.1c4.5-0.3,7.6-2.8,8.9-7.2
		c0.1-0.2,0.2-0.4,0.3-0.6c0-8.1,0-16.2,0-24.3c-0.9-0.1-0.9-0.8-1.1-1.4c-0.7-1.7-1.7-3.1-3.1-4.3c-3.4-2.9-6.5-6.1-9.9-8.9
		c-1.1-1-1.7-2.1-1.7-3.6c0-1.7,0.1-3.4,0-5c-0.1-3.3-2.1-5.3-5.4-5.3c-3.7-0.1-7.4,0-11.1,0c-3,0-3.3-0.3-3.3-3.3
		c0-25.8,0-51.7,0-77.5c0-1.6-0.1-3.1-0.3-4.7c-0.9-6.3-5.7-10.6-12-11c-0.6,0-1.2,0-1.7,0c-26.1,0-52.1,0-78.2,0
		c-8.6,0-13.8,4.8-14.1,13.5c-0.3,8.4-0.1,16.9,0,25.3c0,1,0,2.4,1.4,2.4c1.6,0,1.3-1.5,1.3-2.5c0-8.3,0-16.5,0-24.8
		c0-3.2,0.8-6.2,3.3-8.4c1.8-1.7,3.9-2.7,6.4-2.7c7.3-0.1,14.6-0.1,21.8,0c2,0,2.3,0.4,2.4,2.3c0.1,1.3,0.1,2.7,0,4
		c-0.1,1.9-0.5,2.3-2.4,2.3c-0.6,0-1.3,0-1.9,0c-6.2,0-12.5,0-18.7,0c-2.7,0-3.3,0.6-3.6,3.3c-0.1,0.6,0,1.3,0,1.9
		c0,11.7,0,23.3,0,35c0,1-0.1,2,0.3,2.9c0.2,0.6,0.6,1,1.3,0.9c0.7-0.1,1-0.6,1.1-1.2c0.1-0.7,0.1-1.4,0.1-2.1c0-11.2,0-22.3,0-33.5
		c0-0.6,0-1.3,0-1.9c0.1-2.3,0.4-2.7,2.8-2.7c6.2,0,12.4,0,18.6,0c1.4,0,2.4,0.4,3.2,1.7c1.3,2.2,3.3,3.2,5.8,3.2
		c6.2,0,12.4,0,18.5,0c2.5,0,4.5-0.9,5.7-3.2c0.6-1.1,1.6-1.6,2.8-1.6c7.1,0,14.1,0,21.2,0c1.9,0,2.2,0.4,2.3,2.3c0,0.7,0,1.4,0,2.1
		c0,17.9,0,35.8,0,53.8c0,0.7,0,1.4,0,2.1c0.1,0.8,0.1,1.6,1.1,1.6c1,0,1.1-0.8,1.3-1.5c0.1-0.6,0.2-1.1,0.2-1.7s0-1.2,0-1.7
		c0-18,0-36.1,0-54.1c0-5.3-0.3-5.5-5.4-5.5c-6.6,0-13.3,0-19.9,0c-2.8,0-3.1-0.3-3.1-3.1c0-1.2,0-2.3,0-3.5c0-1.4,0.7-2.1,2.2-2.1
		c0.5,0,1,0,1.6,0c6.9,0,13.9,0.2,20.8-0.1c6.1-0.2,11.3,4.1,11.2,11.3c-0.1,7.7,0,15.4,0,23.1c0,18.3,0,36.6,0,55
		c0,0.7,0,1.4,0,2.1c-0.1,1.9-0.5,2.3-2.4,2.4c-2.6,0.1-5.2-0.1-7.8,0.1c-1.2,0.1-3.2-0.6-3.1,1.4c0.1,1.7,2,1.3,3.3,1.3
		c8.5,0.1,17,0,25.5,0c0.7,0,1.4,0,2.1,0.1c1.4,0.1,2.2,0.9,2.3,2.4c0.1,2.1,0.1,4.3,0,6.4c-0.1,1.1-0.7,1.9-1.5,2.7
		c-2.7,2.9-5.6,5.5-8.5,8.1c-3.2,2.9-4.8,6.4-4.6,10.9c0.3,6.5-0.1,13.1,0.2,19.6c0.1,1.3-0.4,1.8-1.6,1.9c-0.6,0-1.3,0-1.9,0
		c-19.5,0-39,0-58.4,0c-3.6,0-3.7-0.1-3.7-3.7c0-7.7,0-15.4,0-23.1c0-0.7,0-1.4-0.2-2.1c-0.2-0.6-0.5-0.9-1.1-0.9
		c-0.5,0-0.8,0.4-1,0.9c-0.2,0.7-0.2,1.4-0.2,2.1c0,8.1,0,16.2,0,24.3c0,2.2-0.3,4.2-1,6.3c-1.6,4.6-3.1,9.2-4.6,13.8
		c-1.1,3.4-0.5,5.1,2.4,7.1c0.4,0.3,1,0.4,0.9,1.1c30,0,59.9,0,89.8,0C179.6,236.9,180.6,234.6,179.1,230.1z M111.6,75
		c0,1.8-0.8,2.7-2.6,2.7c-6.5,0-13.1,0-19.6,0c-1.6,0-2.6-0.8-2.6-2.4c-0.1-3.1,0-6.1-0.1-9.2c0-1,0.5-0.9,1.2-0.9
		c3.8,0,7.5,0,11.3,0c3.7,0,7.4,0.1,11.1,0c1.1,0,1.3,0.3,1.3,1.3C111.6,69.3,111.7,72.2,111.6,75z M171.9,185.4
		c1.6,0,2.9,1.3,2.9,3c0,1.6-1.3,3-2.9,3c-1.6,0-3.1-1.4-3.1-3.1C168.9,186.7,170.2,185.4,171.9,185.4z M159.1,188.7
		c0-1.4,0.6-2.7,1.7-3.7c2.9-3,5.8-5.9,8.8-8.9c0.1,0.1,0.3,0.1,0.4,0.2c0,1.6-0.1,3.2,0,4.8c0.1,0.9-0.6,1-1.2,1.2
		c-2.9,1.5-4.3,4.5-3.6,7.5c0.8,3.1,3.4,5.2,6.5,5.3c3,0.1,5.8-2,6.6-5.1c0.8-3-0.5-6.2-3.5-7.7c-0.9-0.5-1.2-1-1.2-2
		c0.1-1.5,0-3,0-4.9c3.6,3.4,7,6.5,10.3,9.7c0.9,0.9,1.1,2.1,1.1,3.4c0,7,0,14,0,21c0,2.9-2,5.4-4.9,5.5c-5.4,0.3-10.9,0.4-16.3,0.3
		c-2.7,0-4.8-2.5-4.9-5.2C159.1,203.1,159.1,195.9,159.1,188.7z M173.2,235.2c-14.2,0-28.4,0-42.7,0s-28.4,0-42.7,0
		c-2.8,0-3.4-0.9-2.5-3.5c1.6-4.6,3.2-9.3,4.7-13.9c0.3-1,0.7-1.4,1.8-1.4c21.7,0,43.4,0,65,0c0.7,0,1.3,0.1,1.9,0.6
		c1.8,1.6,4,2.3,6.4,2.2c1.7-0.1,3.4,0,5-0.1c1.2-0.1,1.6,0.4,1.9,1.4c1.2,3.7,2.4,7.4,3.7,11.2
		C176.5,234.3,175.9,235.2,173.2,235.2z"/>
	<path class="st0" d="M84.7,237.9c-2.9-2-3.5-3.8-2.4-7.1c1.5-4.6,3-9.2,4.6-13.8c0.7-2.1,1-4.1,1-6.3c-0.1-8.1,0-16.2,0-24.3
		c0-0.7,0-1.4,0.2-2.1c0.1-0.5,0.4-0.8,1-0.9c0.6,0,1,0.3,1.1,0.9c0.2,0.7,0.2,1.4,0.2,2.1c0,7.7,0,15.4,0,23.1
		c0,3.6,0.1,3.7,3.7,3.7c19.5,0,39,0,58.4,0c0.6,0,1.3,0,1.9,0c1.2-0.1,1.7-0.7,1.6-1.9c-0.3-6.5,0.1-13.1-0.2-19.6
		c-0.2-4.5,1.4-8,4.6-10.9c2.9-2.6,5.8-5.3,8.5-8.1c0.7-0.8,1.4-1.6,1.5-2.7c0.1-2.1,0.1-4.3,0-6.4c-0.1-1.4-0.9-2.2-2.3-2.4
		c-0.7-0.1-1.4-0.1-2.1-0.1c-8.5,0-17,0-25.5,0c-1.2,0-3.2,0.4-3.3-1.3c-0.1-1.9,1.9-1.3,3.1-1.4c2.6-0.1,5.2,0,7.8-0.1
		c1.9-0.1,2.3-0.4,2.4-2.4c0-0.7,0-1.4,0-2.1c0-18.3,0-36.6,0-55c0-7.7-0.1-15.4,0-23.1c0.1-7.2-5.1-11.5-11.2-11.3
		c-6.9,0.2-13.9,0.1-20.8,0.1c-0.5,0-1,0-1.6,0c-1.4,0-2.1,0.7-2.2,2.1c0,1.2,0,2.3,0,3.5c0,2.8,0.3,3.1,3.1,3.1
		c6.7,0,13.3,0,19.9,0c5.1,0,5.4,0.3,5.4,5.5c0,18,0,36.1,0,54.1c0,0.6,0,1.2,0,1.7c0,0.6-0.1,1.2-0.2,1.7c-0.2,0.7-0.3,1.6-1.3,1.5
		c-1.1,0-1.1-0.9-1.1-1.6c-0.1-0.7,0-1.4,0-2.1c0-17.9,0-35.8,0-53.8c0-0.7,0-1.4,0-2.1c-0.1-1.8-0.4-2.3-2.3-2.3
		c-7.1-0.1-14.1,0-21.2,0c-1.3,0-2.2,0.5-2.8,1.6c-1.2,2.3-3.2,3.2-5.7,3.2c-6.2,0-12.4,0-18.5,0c-2.5,0-4.5-1-5.8-3.2
		c-0.7-1.3-1.8-1.7-3.2-1.7c-6.2,0-12.4,0-18.5,0c-2.3,0-2.7,0.4-2.8,2.7c0,0.6,0,1.3,0,1.9c0,11.2,0,22.3,0,33.5
		c0,0.7,0,1.4-0.1,2.1c-0.1,0.6-0.4,1.1-1.1,1.2c-0.7,0.1-1-0.4-1.3-0.9c-0.4-0.9-0.3-1.9-0.3-2.9c0-11.7,0-23.3,0-35
		c0-0.6,0-1.3,0-1.9c0.3-2.7,0.8-3.3,3.6-3.3c6.2,0,12.5,0,18.7,0c0.6,0,1.3,0,1.9,0c1.9-0.1,2.3-0.5,2.4-2.3c0.1-1.3,0.1-2.7,0-4
		c-0.1-1.9-0.5-2.3-2.4-2.3c-7.3,0-14.6-0.1-21.8,0c-2.5,0-4.6,1-6.4,2.7c-2.5,2.3-3.3,5.2-3.3,8.4c0,8.3,0,16.5,0,24.8
		c0,1,0.2,2.6-1.3,2.5c-1.3,0-1.4-1.4-1.4-2.4c0-8.4-0.2-16.9,0-25.3c0.3-8.6,5.5-13.5,14.1-13.5c26.1,0,52.1,0,78.2,0
		c0.6,0,1.2,0,1.7,0c6.3,0.3,11.1,4.7,12,11c0.2,1.6,0.3,3.1,0.3,4.7c0,25.8,0,51.7,0,77.5c0,3,0.3,3.2,3.3,3.3c3.7,0,7.4,0,11.1,0
		c3.3,0,5.3,2,5.4,5.3c0.1,1.7,0.1,3.4,0,5c0,1.5,0.6,2.7,1.7,3.6c3.4,2.9,6.5,6.1,9.9,8.9c1.4,1.2,2.4,2.6,3.1,4.3
		c0.2,0.5,0.3,1.3,1.1,1.4c-0.8-2.9-2.7-5.1-5-7.1c-1.8-1.5-3.4-3.1-5.1-4.7c-1.7-1.5-3.8-2.8-4.8-4.7c-1-1.9-0.3-4.5-0.3-6.8
		c-0.1-3.8-2.3-6-6.1-6c-3.9,0-7.9-0.1-11.8,0c-1.7,0.1-2.1-0.4-2.1-2.1c0.1-26.8,0.1-53.5,0-80.3c0-8.6-5.6-14.1-14.1-14.1
		c-26.4,0-52.7,0-79.1,0c-8.5,0-14.1,5.5-14.1,14.1c0,8.5,0,17,0,25.5c0,0.5,0,0.9,0.1,1.4c0.2,1,0.8,1.7,1.9,1.6
		c1-0.1,1.7-0.7,1.8-1.8c0-0.5,0-1,0-1.6c0-8.6,0-17.2,0-25.8c0-5.1,3.7-9.4,8.4-9.6c7.8-0.2,15.6-0.1,23.4-0.1c0.8,0,1,0.3,1,1
		c-0.1,1.4,0,2.9,0,4.3c0,2.4,0,2.4-2.3,2.4c-7,0-14,0-21,0c-2.7,0-3.1,0.4-3.1,3.1c0,13.1,0,26.1,0,39.2c0,0.5,0,1.1,0.1,1.6
		c0.2,1,0.8,1.5,1.8,1.5c1,0,1.6-0.6,1.8-1.6c0.1-0.6,0-1.2,0-1.7c0-12.3,0-24.5,0-36.8c0-1.2,0.2-1.6,1.5-1.6
		c6.7,0.1,13.4,0,20.1,0c0.8,0,1.2,0.1,1.6,0.9c1,2.5,3,3.8,5.7,3.8c6.7,0.1,13.4,0.1,20.1,0c2.5,0,4.5-1.2,5.5-3.5
		c0.4-1.1,1.1-1.2,2.1-1.2c7.1,0,14.1,0.1,21.2,0c1.6,0,2,0.3,2,2c-0.1,19,0,37.9,0,56.9c0,0.6,0,1.2,0,1.7c0.1,1,0.7,1.6,1.7,1.6
		c1.1,0.1,1.8-0.5,1.9-1.6c0.1-0.4,0.1-0.9,0.1-1.4c0-20,0-40,0-60c0-2.6-0.5-3-3.1-3c-7.9,0-15.7,0-23.6,0c-1.4,0-1.8-0.4-1.7-1.7
		c0.1-1.6,0.1-3.1,0-4.7c-0.1-1.2,0.3-1.4,1.4-1.4c7.6,0.1,15.3,0,22.9,0c6.5,0,10.3,3.8,10.3,10.3c0,9.9,0,19.8,0,29.7
		c0,17,0,34,0,51c0,1.3-0.2,1.7-1.6,1.7c-2.9-0.1-5.9,0-8.8,0c-2.4,0-3.3,0.5-3.3,1.8c0,1.4,1,1.9,3.4,1.9c9.2,0,18.4,0,27.6,0
		c2.2,0,2.6,0.4,2.7,2.6c0,1.6-0.1,3.1,0,4.7c0.1,1.3-0.3,2.1-1.2,3c-3.5,3.4-6.9,6.8-10.4,10.2c-2.1,2.1-3.1,4.5-3.1,7.4
		c0,6.7,0,13.4,0,20.1c0,0.5-0.1,1.1,0.1,1.6c0.6,1.4-0.2,1.4-1.3,1.4c-20.5,0-41,0-61.6,0c-1.5,0-1.7-0.5-1.7-1.8
		c0.1-8.4,0-16.8,0-25.1c0-0.6,0-1.3-0.1-1.9c-0.2-0.9-0.9-1.4-1.8-1.3c-0.9,0-1.5,0.5-1.7,1.4c-0.1,0.5-0.1,1-0.1,1.6
		c0,7-0.2,14,0.1,21c0.2,5.2-0.5,10.1-2.4,14.9c-1.2,2.9-2,5.9-3,8.8c-1.5,4.4-0.5,6.8,3.8,8.8C85.6,238.3,85.1,238.1,84.7,237.9z"
		/>
	<path class="st0" d="M51.3,238.1c2.2-0.9,3-2.8,3.4-4.9c1.3-6.1,2.8-12.1,4-18.1c0.4-2.1,1.2-3.5,3.2-4.5c3.7-1.9,4.7-5.5,4.8-9.4
		c0.1-3.8,0-7.5,0-11.3c0-2.5,0.3-2.8,2.8-2.8c4.5-0.1,4.5-0.1,4.5-4.6c0-2.1,0.1-4.3,0-6.4c-0.1-1.8-0.7-2.4-2.4-2.5
		c-0.6,0-1.2,0-1.7,0c-2.8,0-3.1-0.3-3.1-3c0-3.6,0.1-7.3,0-10.9c-0.1-2.7-0.4-5.3-2.3-7.5c-1.8-2.1-4.1-3.2-7-3.2
		c-10.3,0-20.7,0-31,0c-0.6,0-1.2,0-1.7,0c-2.5-0.1-2.9-0.5-2.3-2.9c1.3-5.7,2.6-11.5,3.9-17.3c0.7-3.3,1.2-3.7,4.7-3.7
		c5.7,0,11.3,0,17,0c2.9,0,3.4,0.4,4.1,3.2c0.7,2.9,1.3,5.9,2,8.8c0.1,0.5,0.2,1,0.5,1.5c0.3,0.6,0.7,0.9,1.4,0.7
		c0.6-0.2,0.9-0.6,1-1.3c0-0.6-0.1-1.1-0.2-1.7c-0.7-3-1.4-6.1-2.1-9.1c-0.9-3.6-2.5-4.9-6.3-4.9c-6.1,0-12.1,0-18.2,0
		c-3.7,0-5.5,1.4-6.3,5.1c-1.4,6.4-2.9,12.8-4.3,19.3c-0.3,1.3-0.8,2.4-2.1,2.9c-3.8,1.7-5.4,4.8-5.4,8.9c0,7.6,0,15.3,0,22.9
		c0,6.8,0.1,13.6,0,20.4c-0.2,5.7,4,10.1,9.9,10c10.2-0.2,20.5-0.1,30.7-0.1c0.5,0,1,0,1.6,0c2.4,0.1,2.6,0.4,2.1,2.7
		c-1.3,5.8-2.6,11.6-3.9,17.4c-0.8,3.4-1.3,3.8-4.7,3.8c-5.6,0-11.2,0-16.8,0c-3.1,0-3.6-0.4-4.3-3.5c-0.5-2.4-1-4.7-1.6-7.1
		c-0.1-0.4-0.2-0.8-0.3-1.2c-0.3-0.8-0.7-1.4-1.6-1.1c-0.8,0.2-1,0.9-0.9,1.6c0.1,0.7,0.2,1.4,0.4,2c0.6,2.2,1.1,4.4,1.5,6.6
		c0.4,2.2,1.3,3.9,3.3,5c0.3,0.2,0.7,0.4,0.7,0.9c7.6,0,15.3,0,22.9,0C50.5,238.4,50.9,238.2,51.3,238.1z M67.1,180.3
		c0-0.6,0.1-1.2,0-1.7c-0.3-1.5,0.4-1.7,1.8-1.8c1.5,0,2,0.4,1.8,1.9c-0.1,1.3-0.1,2.5,0,3.8c0.1,1.2-0.4,1.3-1.4,1.4
		c-1.8,0.2-2.5-0.4-2.2-2.2C67.2,181.2,67.1,180.7,67.1,180.3z M21.5,208.5c-4.1,0-6.3-2.2-6.3-6.3c0-7.3,0-14.6,0-21.8
		c0-7.3,0-14.7,0-22c0-4,2.2-6.2,6.2-6.2c11.9,0,23.8,0,35.7,0c4,0,6.3,2.3,6.3,6.2c0,14.6,0,29.2,0,43.9c0,4.1-2.3,6.3-6.3,6.3
		C45.1,208.5,33.3,208.5,21.5,208.5z"/>
	<path class="st0" d="M55.2,233.3c1.4-6.7,3-13.3,4.5-19.9c0.1-0.6,0.1-1.3,1-1.6c4.5-1.7,6.4-5.1,6.4-9.9c-0.1-4.3,0-8.7,0-13
		c0-1.1,0.2-1.4,1.3-1.3c1.3,0.1,2.5,0,3.8,0c1.4,0,2.2-0.7,2.2-2.1c0.1-3.5,0.1-6.9,0-10.4c0-1.4-0.8-2.1-2.3-2.1
		c-1.3,0-2.6-0.1-3.8,0c-1.1,0.1-1.3-0.3-1.3-1.4c0.1-4.5,0-9,0-13.5c0-4.1-1.8-7.1-5.4-9c-1.6-0.9-3.4-0.9-5.2-0.9
		c-10.9,0-21.7,0-32.6,0c-0.7,0-1.6,0.3-1.2-1.1c1.5-6.6,3-13.3,4.5-19.9c0.3-1.3,1-1.9,2.4-1.9c6.5,0.1,13,0,19.4,0
		c1.4,0,2.1,0.6,2.4,1.9c0.7,3.5,1.6,7,2.4,10.5c0.3,1.3,0.9,2.4,2.4,2c1.5-0.3,1.6-1.5,1.3-2.8c-0.8-3.5-1.6-7.1-2.4-10.6
		c-0.8-3.2-2.8-4.8-6.1-4.8c-6.5,0-13,0-19.4,0c-3.3,0-5.3,1.6-6,4.8c-1.6,7-3.2,13.9-4.8,20.9c-0.1,0.6-0.2,1.1-1,1.4
		c-4.5,1.7-6.4,5.1-6.4,9.8c0.1,14.4,0,28.8,0,43.2c0,6.6,3.8,10.4,10.4,10.4c10.7,0,21.5,0,32.3,0c0.6,0,1.3,0,2,0
		c-1.6,7.2-3.2,14.2-4.8,21.2c-0.3,1.3-1.2,1.7-2.5,1.6c-6.4,0-12.7-0.1-19.1,0c-1.7,0-2.4-0.7-2.7-2.2c-0.7-3.1-1.4-6.2-2.1-9.3
		c-0.3-1.3-1-2-2.3-1.7c-1.3,0.3-1.6,1.3-1.3,2.6c0.7,2.8,1.4,5.5,1.8,8.3c0.5,2.9,1.8,5,4.5,6.1c0.1-0.5-0.3-0.7-0.7-0.9
		c-2-1.1-2.9-2.9-3.3-5c-0.4-2.2-0.9-4.4-1.5-6.6c-0.2-0.7-0.3-1.4-0.4-2c-0.1-0.8,0.1-1.4,0.9-1.6c0.9-0.3,1.4,0.4,1.6,1.1
		c0.1,0.4,0.2,0.8,0.3,1.2c0.6,2.4,1.1,4.7,1.6,7.1c0.7,3.1,1.2,3.5,4.3,3.5c5.6,0,11.2,0,16.8,0c3.4,0,3.9-0.4,4.7-3.8
		c1.3-5.8,2.6-11.6,3.9-17.4c0.5-2.3,0.3-2.6-2.1-2.7c-0.5,0-1,0-1.6,0c-10.2,0-20.5-0.1-30.7,0.1c-5.9,0.1-10.1-4.3-9.9-10
		c0.2-6.8,0-13.6,0-20.4c0-7.6,0-15.3,0-22.9c0-4,1.6-7.2,5.4-8.9c1.3-0.6,1.8-1.6,2.1-2.9c1.4-6.4,2.9-12.9,4.3-19.3
		c0.8-3.7,2.6-5.1,6.3-5.1c6.1,0,12.1,0,18.2,0c3.8,0,5.4,1.3,6.3,4.9c0.7,3,1.4,6.1,2.1,9.1c0.1,0.6,0.3,1.1,0.2,1.7
		c0,0.6-0.3,1.1-1,1.3c-0.7,0.2-1.1-0.2-1.4-0.7c-0.3-0.5-0.3-1-0.5-1.5c-0.8-2.9-1.3-5.9-2-8.8c-0.7-2.7-1.2-3.2-4.1-3.2
		c-5.7,0-11.3,0-17,0c-3.4,0-3.9,0.4-4.7,3.7c-1.3,5.8-2.6,11.5-3.9,17.3c-0.6,2.4-0.2,2.9,2.3,2.9c0.6,0,1.2,0,1.7,0
		c10.3,0,20.7,0,31,0c2.9,0,5.1,1.1,7,3.2c1.9,2.1,2.2,4.8,2.3,7.5c0.1,3.6,0,7.3,0,10.9c0,2.8,0.3,3,3.1,3c0.6,0,1.2,0,1.7,0
		c1.8,0.1,2.4,0.7,2.4,2.5c0.1,2.1,0,4.3,0,6.4c0,4.6,0,4.6-4.5,4.6c-2.5,0-2.8,0.3-2.8,2.8c0,3.8,0.1,7.5,0,11.3
		c-0.1,3.9-1,7.5-4.8,9.4c-2,1-2.8,2.4-3.2,4.5c-1.2,6.1-2.7,12.1-4,18.1c-0.5,2.1-1.3,4-3.4,4.9c-0.3,0.1-0.7,0.4-0.7,0.9
		C53.3,238,54.6,236.1,55.2,233.3z"/>
	<path class="st0" d="M90.9,166c1.5,0,2.3-0.8,2.3-2.2c0-6.6,0-13.3,0-19.9c0-1.5-0.8-2.3-2.3-2.3c-2.8,0-5.6,0-8.3,0
		c-0.8,0-1.8,0.2-1.9,0.9c-0.3,1.7-1.4,1.4-2.5,1.4c-1,0-2,0-2.9,0.1c-0.6,0.1-0.8-0.1-1-0.6c-1.9-6-2.9-12.1-1.5-18.4
		c2.6-11.2,11.7-20,23-22c10.9-1.9,22.1,3.4,28.2,13.3c5.3,8.6,5.3,17.7,2.1,27c-0.2,0.4-0.2,0.8-0.9,0.7c-1.4-0.2-2.8-0.1-4.2-0.2
		c-0.5,0-1,0.1-1.1-0.7c-0.2-1.4-1.2-1.7-2.4-1.7c-2.5,0-5.1,0-7.6,0c-2.1,0-2.7,0.6-2.7,2.7c0,3.2,0,6.4,0,9.5c0,3.2,0,6.5,0,9.7
		c0,1.5,0.6,2.5,2.2,2.5c2.8,0,5.7,0,8.5,0c1,0,1.9-0.4,2-1.5c0.1-0.9,0.6-0.8,1.2-0.8c0.6,0,1.3,0,1.9,0c4.1,0,6-1.9,5.9-5.9
		c-0.2-6.3,0.1-12.4,2.1-18.4c1.6-4.9,1.4-9.9,0.4-14.9c-4.5-22-30.1-32.6-48.5-20.1c-12,8.1-17.2,22.6-13.1,37
		c0.6,2.2,1.6,4.4,1.7,6.7c0.2,2.7,0.1,5.4,0,8.1c-0.4,5.8,1.9,8,7.5,7.6c0.8-0.1,1.5-0.2,1.7,1.1c0.1,1,1.1,1.2,2.1,1.2
		C85.3,166,88.1,166,90.9,166z M85.3,145.3c4-0.1,4-0.1,4,4c0,1.5,0,3,0,4.5c0,2.4,0,4.9,0,7.3c0,0.9-0.2,1.2-1.2,1.2
		c-4.1,0.1-4.1,0.2-4.1-3.9c0-3.9,0-7.9,0-11.8C84.1,145.6,84.4,145.3,85.3,145.3z M115.1,162.3c-4.1,0.1-4.1,0.2-4.1-3.9
		c0-3.9,0-7.7,0-11.6c0-0.9,0.1-1.4,1.3-1.4c4,0,4-0.1,4,4c0,1.6,0,3.1,0,4.7c0,2.4,0,4.7,0,7.1C116.3,162,116,162.3,115.1,162.3z
		 M123.2,159.9c-3.2,0-3.2,0-3.2-3.2c0-1,0-2,0-2.9c0-1.7,0-3.3,0-5c0-0.8,0.2-1.1,1.1-1.1c4.7,0.1,4.1-0.4,4.1,3.8
		c0,2.1-0.1,4.3,0,6.4C125.2,159.3,124.8,159.9,123.2,159.9z M79.3,159.9c-4.6-0.1-4.1,0.4-4.1-3.9c0-2.2,0-4.5,0-6.7
		c0-1.2,0.4-1.6,1.6-1.7c3.6-0.1,3.6-0.1,3.6,3.4c0,0.9,0,1.8,0,2.8c0,1.7,0,3.3,0,5C80.4,159.7,80.1,159.9,79.3,159.9z"/>
	<path class="st0" d="M89.1,172.5c-1.3,0-2.4,1.1-2.4,2.4c0,1.3,1.1,2.4,2.4,2.4c1.4,0,2.4-1,2.4-2.4
		C91.5,173.6,90.4,172.5,89.1,172.5z"/>
	<path class="st0" d="M48.5,109.9c-1.4,0-2.4,1-2.4,2.4c0,1.3,1.1,2.4,2.4,2.4c1.3,0,2.4-1.1,2.5-2.4
		C50.9,111,49.8,109.9,48.5,109.9z"/>
	<path class="st0" d="M141.7,148.9c1.4,0.1,2.5-0.9,2.6-2.2c0.1-1.3-0.9-2.5-2.3-2.6c-1.3-0.1-2.5,1-2.6,2.3
		C139.3,147.6,140.3,148.8,141.7,148.9z"/>
	<path class="st0" d="M157.3,223.9c-0.2,0-0.5,0-0.7,0c-17.5,0-34.9,0-52.4,0c-0.6,0-1.2,0-1.7,0.1c-0.8,0.2-1.3,0.8-1.3,1.6
		c-0.1,0.9,0.3,1.6,1.2,1.9c0.6,0.2,1.3,0.1,1.9,0.1c8.7,0,17.3,0,26,0c7.4,0,14.8,0,22.2,0c1.6,0,3.2,0,4.9,0
		c1.3,0,2.4-0.5,2.4-1.9C159.7,224.3,158.6,223.9,157.3,223.9z"/>
	<path class="st0" d="M39.2,161.6c-10.3,0-18.8,8.3-18.8,18.6c-0.1,10.4,8.4,18.9,18.7,18.9c10.4,0,18.8-8.3,18.9-18.7
		C58.1,170,49.7,161.6,39.2,161.6z M39.2,195.3c-8.4,0-15-6.7-15-15.1c0-8.3,6.8-14.9,15.1-14.9c8.3,0,15,6.7,15,14.9
		C54.3,188.6,47.5,195.4,39.2,195.3z"/>
	<path class="st0" d="M48.4,178.5c-3.9-2.9-7.9-5.8-11.8-8.8c-0.8-0.6-1.5-1.1-2.5-0.5c-1,0.5-1.1,1.4-1.1,2.4c0,2.9,0,5.9,0,8.8
		c0,2.9,0,5.8,0,8.7c0,1,0.1,1.9,1.2,2.5c1,0.5,1.7-0.1,2.4-0.6c4-2.9,7.9-5.8,11.8-8.8C50.1,180.9,50.1,179.7,48.4,178.5z
		 M43.7,181c-2.2,1.7-4.4,3.3-6.9,5.1c0-3.9,0-7.5,0-11.5c2.5,1.9,4.9,3.6,7.3,5.4C44.8,180.5,44,180.8,43.7,181z"/>
</g>
</svg>
