<?xml version="1.0" encoding="utf-8"?>
<!-- Generator: Adobe Illustrator 25.0.0, SVG Export Plug-In . SVG Version: 6.00 Build 0)  -->
<svg version="1.1" id="Layer_1" xmlns="http://www.w3.org/2000/svg" xmlns:xlink="http://www.w3.org/1999/xlink" x="0px" y="0px"
	 viewBox="0 0 200 300" style="enable-background:new 0 0 200 300;" xml:space="preserve">
<style type="text/css">
	.st0{fill:#6148DE;}
	.st1{fill:none;stroke:#6148DE;stroke-width:3.7;stroke-linecap:round;stroke-linejoin:round;stroke-miterlimit:10;}
	.st2{fill:none;stroke:#6148DE;stroke-width:2.5;stroke-miterlimit:10;}
	.st3{fill:none;stroke:#6148DE;stroke-width:1.5;stroke-miterlimit:10;}
	.st4{fill:none;stroke:#6148DE;stroke-width:2;stroke-miterlimit:10;}
	.st5{fill:none;stroke:#6148DE;stroke-miterlimit:10;}
</style>
<g>
	<g>
		<path class="st0" d="M119.5,107.4c1.7,0,2.9,1.3,2.9,2.9v65.9c0,1.7-1.3,2.9-2.9,2.9H21.3c-1.7,0-2.9-1.3-2.9-2.9l-0.1-65.9
			c0-1.7,1.3-3,2.9-3L119.5,107.4 M119.5,105H21.1c-1.5,0-2.8,0.5-3.8,1.6c-1,1-1.6,2.4-1.6,3.8l0.1,65.9c0,3,2.5,5.4,5.4,5.4h98.2
			c3,0,5.4-2.5,5.4-5.4v-65.9C124.9,107.3,122.5,105,119.5,105L119.5,105z"/>
	</g>
	<line class="st1" x1="18.3" y1="170" x2="122.4" y2="170"/>
	<line class="st1" x1="66.8" y1="175.5" x2="74" y2="175.5"/>
	<g>
		<path class="st0" d="M91.3,190.6v4H49.5v-4H91.3 M91.9,188.2H48.8c-0.9,0-1.7,0.8-1.7,1.7v5.5c0,0.9,0.8,1.7,1.7,1.7H92
			c0.9,0,1.7-0.8,1.7-1.7v-5.5C93.7,188.9,92.9,188.2,91.9,188.2L91.9,188.2z"/>
	</g>
	<line class="st1" x1="59.2" y1="181.6" x2="58" y2="188.2"/>
	<line class="st1" x1="81.4" y1="181.6" x2="82.4" y2="188.2"/>
</g>
<path class="st2" d="M179.8,197.1h-36.5c-2.4,0-4.4-2-4.4-4.4v-83.4c0-2.4,2-4.4,4.4-4.4h36.5c2.4,0,4.4,2,4.4,4.4v83.4
	C184.2,195.2,182.2,197.1,179.8,197.1z"/>
<path class="st3" d="M178.4,119.1h-33.8c-0.2,0-0.4-0.2-0.4-0.4v-7.2c0-0.2,0.2-0.4,0.4-0.4h33.8c0.2,0,0.4,0.2,0.4,0.4v7.2
	C178.9,118.9,178.7,119.1,178.4,119.1z"/>
<line class="st4" x1="138.9" y1="156.4" x2="184.2" y2="156.4"/>
<circle class="st5" cx="161.6" cy="167.6" r="3.1"/>
</svg>
