<?xml version="1.0" encoding="utf-8"?>
<!-- Generator: Adobe Illustrator 23.0.5, SVG Export Plug-In . SVG Version: 6.00 Build 0)  -->
<svg version="1.1" id="Layer_1" xmlns="http://www.w3.org/2000/svg" xmlns:xlink="http://www.w3.org/1999/xlink" x="0px" y="0px"
	 viewBox="0 0 200 300" style="enable-background:new 0 0 200 300;" xml:space="preserve">
<style type="text/css">
	.st0{fill:#6148DE;}
	.st1{fill:none;stroke:#6148DE;stroke-width:3.7;stroke-linecap:round;stroke-linejoin:round;stroke-miterlimit:10;}
	.st2{fill:#FFFFFF;stroke:#6148DE;stroke-width:3.7;stroke-linecap:round;stroke-linejoin:round;stroke-miterlimit:10;}
	.st3{fill:none;stroke:#6148DE;stroke-width:3.7;stroke-miterlimit:10;}
	.st4{fill:none;stroke:#6148DE;stroke-width:1.5;stroke-miterlimit:10;}
	.st5{fill:#6148DE;stroke:#6148DE;stroke-width:2;stroke-miterlimit:10;}
	.st6{fill:#6148DE;stroke:#6148DE;stroke-miterlimit:10;}
	.st7{fill:#6148DE;stroke:#6148DE;stroke-width:2.5;stroke-miterlimit:10;}
</style>
<g>
	<polygon class="st1" points="39.6,156.1 80,156.1 80,236.6 70.2,236.6 60.3,185.5 51.2,236.6 39.6,236.6 	"/>
	<polyline class="st1" points="30.6,82.2 36.8,98.1 39.6,143.8 80,143.8 83.7,98.3 88.8,82.2 	"/>
	<polyline class="st1" points="45.4,75.6 59.8,111.3 75,74.9 	"/>
	<line class="st1" x1="59.8" y1="111.3" x2="59.8" y2="141.9"/>
	<polyline class="st1" points="37,101 27.3,129.1 13.5,129.1 25.5,82.2 46.1,73.1 78,73.1 95.3,82.2 107.3,129.1 93.6,129.1 
		83.8,101 	"/>
	<polyline class="st1" points="45.4,72.5 45.4,61.7 75,61.7 75,73.1 	"/>
	<path class="st1" d="M126.2,144.8l-25.4,85l7.1,7.1c2.8,2.8,7.3,2.8,10.1,0l2.3-2.3c2.8-2.8,7.3-2.8,10.1,0l1.5,1.5
		c2.8,2.8,7.3,2.8,10.1,0l0,0c2.8-2.8,7.3-2.8,10.1,0l0.5,0.5c2.8,2.8,7.3,2.8,10.1,0l0.3-0.3c2.8-2.8,7.3-2.8,10.1,0l0.7,0.7
		c2.8,2.8,7.3,2.8,10.1,0l6-6l-25.9-86.3"/>
	<line class="st1" x1="130.5" y1="63.9" x2="130.5" y2="78.4"/>
	<line class="st1" x1="159.9" y1="63.9" x2="159.9" y2="78.4"/>
	<path class="st1" d="M162.8,144.8h-35.1c-3.7,0-6.6-3-6.6-6.6v-0.4c0-3.7,3-6.6,6.6-6.6h35.1c3.7,0,6.6,3,6.6,6.6v0.4
		C169.4,141.8,166.4,144.8,162.8,144.8z"/>
	<path class="st1" d="M145.3,94.2c2.2-9.1,8.8-15,14.6-15c5.8,0,15.4,4.4,12.1,19.2c-3.2,14.8-9.4,32.8-9.4,32.8"/>
	<path class="st1" d="M145,94.2c-2.2-9.1-8.8-15-14.6-15c-5.8,0-15.4,4.4-12.1,19.2c3.2,14.8,9.4,32.8,9.4,32.8"/>
	<line class="st1" x1="123.7" y1="232.7" x2="140.5" y2="144.8"/>
	<line class="st1" x1="146.7" y1="233.1" x2="148.1" y2="144.8"/>
	<line class="st1" x1="168.3" y1="234.1" x2="154.8" y2="144.8"/>
</g>
</svg>
