<?xml version="1.0" encoding="utf-8"?>
<!-- Generator: Adobe Illustrator 23.0.5, SVG Export Plug-In . SVG Version: 6.00 Build 0)  -->
<svg version="1.1" id="Layer_1" xmlns="http://www.w3.org/2000/svg" xmlns:xlink="http://www.w3.org/1999/xlink" x="0px" y="0px"
	 viewBox="0 0 200 300" style="enable-background:new 0 0 200 300;" xml:space="preserve">
<style type="text/css">
	.st0{fill:#6148DE;}
	.st1{fill:none;stroke:#6148DE;stroke-width:3.7;stroke-linecap:round;stroke-linejoin:round;stroke-miterlimit:10;}
	.st2{fill:#FFFFFF;stroke:#6148DE;stroke-width:3.7;stroke-linecap:round;stroke-linejoin:round;stroke-miterlimit:10;}
	.st3{fill:none;stroke:#6148DE;stroke-width:3.7;stroke-miterlimit:10;}
	.st4{fill:none;stroke:#6148DE;stroke-width:1.5;stroke-miterlimit:10;}
	.st5{fill:#6148DE;stroke:#6148DE;stroke-width:2;stroke-miterlimit:10;}
	.st6{fill:#6148DE;stroke:#6148DE;stroke-miterlimit:10;}
	.st7{fill:#6148DE;stroke:#6148DE;stroke-width:2.5;stroke-miterlimit:10;}
</style>
<path class="st0" d="M180.7,96.4c-1.4,0.7-1.7,2.2-0.8,3.9c5.5,10.2,5.8,20.8,2.6,31.8c-3.4,12.1-10,22.4-17.8,32.1
	c-14.2,17.5-31.2,31.8-49.6,44.7c-1.9,1.3-2.9,1.2-4.9-0.2c-11.2-7.8-21.8-16.2-31.7-25.6c-0.9-0.9-1.8-1.8-2.9-2.9
	c8,0,15.6,0,23.3,0c1.1,0,1,0.7,1,1.4c0,3.1-0.1,6.3,0,9.4c0.1,3.4,2.6,5.8,6,5.9c1.7,0,3.5,0,5.2,0c3.6,0,5.8-1.8,6.5-5.3
	c0.2-1,0.6-1,1.3-1c1.9,0,3.7,0.1,5.6,0c3.2-0.1,5.8-2.6,5.8-5.8c0.1-10.1,0.1-20.2,0-30.4c0-3.2-2.6-5.7-5.8-5.8
	c-1.8-0.1-3.6-0.1-5.4,0c-1,0-1.3-0.1-1.5-1.2c-0.6-3.3-2.9-5-6.3-5.1c-1.6,0-3.3,0-4.9,0c-4.1,0-6.5,2.4-6.6,6.5
	c0,2.9-0.1,5.8,0,8.7c0,1-0.3,1.3-1.3,1.3c-2.2-0.1-4.4,0-6.6,0c-1.9,0-3,1.1-3,2.7c0,1.5,1.2,2.5,2.9,2.5c2.2,0,4.3,0.1,6.5,0
	c1.1,0,1.5,0.2,1.5,1.4c-0.1,2.7-0.1,5.5,0,8.2c0,1.1-0.3,1.4-1.4,1.4c-18.6,0-37.1,0-55.7,0c-1,0-1.3-0.3-1.3-1.3
	c0.1-2.7,0.1-5.5,0-8.2c-0.1-1.2,0.3-1.5,1.5-1.5c6.6,0.1,13.1,0,19.7,0c5.5,0,10.9,0,16.4,0c1.9,0,3-0.8,3.1-2.3
	c0.2-1.7-1-2.9-3.1-2.9c-7,0-14.1,0-21.1,0c-0.9,0-1.6-0.2-2.2-1c-3.7-5.3-7.1-10.8-9.6-16.7c-4.1-9.5-6.4-19.2-4.6-29.7
	c3.4-19.8,23.8-34,43.5-30.3c9.2,1.7,16.8,6.1,22.8,13.3c1.1,1.3,2.4,2.2,4.1,2.4c2.6,0.3,4.2-1.1,5.8-2.9
	c7.3-8.4,16.6-12.9,27.7-13.3c10.2-0.3,19,3.2,26.6,10c1.5,1.4,3,1.4,4.1,0.2c1.1-1.2,0.9-2.7-0.6-4c-6.7-6.1-14.4-10-23.4-11
	C137,74,124.1,79,113.8,90.7c-0.8,1-1.2,0.9-2.1,0c-10-11.4-22.5-16.5-37.6-15c-24.3,2.5-41.6,25.3-37.9,49.5
	c1.6,10.4,5.6,19.8,11,28.7c1,1.6,1.9,3.1,3,4.9c-2.8,0-5.3,0-7.9,0c-1,0-0.8-0.6-0.8-1.2c0-3,0-5.9,0-8.9c-0.1-3.9-2.6-6.4-6.5-6.4
	c-1.6,0-3.3,0-4.9,0c-3.5,0-5.7,1.7-6.4,5.1c-0.2,1-0.5,1.2-1.5,1.1c-1.9-0.1-3.7-0.1-5.6,0c-3.2,0.1-5.4,2.5-5.4,5.6
	c0,10.2,0,20.5,0,30.7c0,3.3,2.2,5.5,5.5,5.7c1.7,0.1,3.5,0.1,5.2,0c1.1-0.1,1.6,0.3,1.8,1.4c0.6,3,2.9,4.8,5.9,4.9
	c1.7,0,3.4,0,5.1,0c4.4,0,6.7-2.4,6.8-6.8c0-2.8,0.1-5.6,0-8.4c0-1.3,0.4-1.5,1.6-1.5c7.9,0.1,15.7,0.1,23.6,0c1,0,1.7,0.4,2.4,1.1
	c11.7,11.9,24.5,22.3,38.1,31.7c3.8,2.6,7.1,2.7,11,0.1c4.6-3.2,9.1-6.5,13.5-9.9c14.3-11.2,27.7-23.5,38.8-37.9
	c7.4-9.5,13.5-19.7,16.9-31.4c3.5-12.3,3.3-24.3-3-35.8C183.5,96.2,182.1,95.7,180.7,96.4z M117.8,155.2c0-1,0.4-1.3,1.4-1.3
	c1.5,0,2.9,0.1,4.4,0c1.3-0.1,1.7,0.4,1.7,1.7c-0.1,4.7,0,9.4,0,14.1c0,4.6-0.1,9.3,0,13.9c0,1.5-0.5,1.9-1.9,1.8
	c-1.4-0.1-2.8-0.1-4.2,0c-1,0-1.4-0.4-1.4-1.3C117.8,174.5,117.8,164.8,117.8,155.2z M106.9,147.6c1.3,0.1,2.7,0.1,4,0
	c1.3-0.1,1.7,0.5,1.7,1.7c0,6.8,0,13.6,0,20.4c0,6.7,0,13.4,0,20.1c0,1.5-0.4,2-1.9,1.9c-1.3-0.1-2.6-0.1-3.8,0
	c-1.4,0.1-1.8-0.5-1.8-1.8c0-13.5,0-27,0-40.5C105.1,148.1,105.5,147.5,106.9,147.6z M34.4,191.7c-1.2-0.1-2.4-0.1-3.7,0
	c-1.5,0.1-1.9-0.5-1.9-1.9c0.1-6,0-12.1,0-18.1c0-0.5,0-0.9,0-1.4c-0.1-1.7-1.1-2.7-2.6-2.7c-1.5,0-2.5,1-2.6,2.7
	c-0.1,1.5,0,2.9,0,4.4c0,3.1,0,6.2,0,9.2c0,1.2-0.4,1.7-1.6,1.6c-1.5-0.1-2.9-0.1-4.4,0c-1,0-1.5-0.4-1.5-1.4c0-9.6,0-19.2,0-28.8
	c0-1,0.4-1.4,1.3-1.4c1.6,0,3.1,0.1,4.7,0c1.1,0,1.4,0.5,1.4,1.5c0,0.8-0.1,1.6,0,2.4c0.1,1.7,1.3,2.8,2.8,2.8
	c1.4-0.1,2.4-1.2,2.4-2.8c0-2.8,0.1-5.6,0-8.4c0-1.3,0.4-1.8,1.7-1.7c1.3,0.1,2.7,0.1,4,0c1.4-0.1,1.8,0.5,1.8,1.8
	c-0.1,6.8,0,13.6,0,20.4c0,6.6,0,13.3,0,19.9C36.4,191.2,36,191.9,34.4,191.7z"/>
<path class="st0" d="M130.5,119.2c-6.7,0-13.5,0-20.2,0c-1.3,0-1.8-0.4-2.1-1.6c-0.9-3.5-2.1-7-3.2-10.5c-0.7-2.2-2.9-2.9-4.4-1.5
	c-0.6,0.6-0.7,1.3-1,2c-2.6,8.5-5.2,17-7.7,25.4c-0.2,0.6-0.2,1.4-0.9,2c-0.1-0.3-0.1-0.4-0.2-0.6c-1.8-6-3.7-11.9-5.5-17.9
	c-0.5-1.8-1.6-2.5-3.4-2.5c-8.1,0-16.2,0-24.2,0c-0.5,0-1,0-1.5,0.2c-1.3,0.4-1.9,1.3-1.8,2.6c0.1,1.3,0.8,2.2,2.2,2.3
	c0.6,0.1,1.2,0.1,1.7,0.1c5.8,0,11.6,0,17.4,0c1.6,0,3.6-0.5,4.8,0.2c1.2,0.8,1.2,3,1.7,4.6c2.1,6.9,4.2,13.7,6.3,20.6
	c0.6,2.1,1.9,2.9,3.6,2.3c1.2-0.4,1.6-1.4,1.9-2.5c2.6-8.5,5.2-17.1,7.8-25.6c0.2-0.6,0.1-1.4,0.8-1.9c0.5,1.6,1,3.1,1.4,4.7
	c0.8,2.4,1.2,2.8,3.7,2.8c7.7,0,15.3,0,23,0c0.5,0,0.9,0,1.4-0.1c1.3-0.2,2.1-1.1,2.1-2.4c0.1-1.3-0.5-2.3-1.8-2.6
	C131.8,119.2,131.1,119.2,130.5,119.2z"/>
</svg>
