<?xml version="1.0" encoding="utf-8"?>
<!-- Generator: Adobe Illustrator 23.0.5, SVG Export Plug-In . SVG Version: 6.00 Build 0)  -->
<svg version="1.1" id="Layer_1" xmlns="http://www.w3.org/2000/svg" xmlns:xlink="http://www.w3.org/1999/xlink" x="0px" y="0px"
	 viewBox="0 0 200 300" style="enable-background:new 0 0 200 300;" xml:space="preserve">
<style type="text/css">
	.st0{fill:#6148DE;}
	.st1{fill:none;stroke:#6148DE;stroke-width:3.7;stroke-linecap:round;stroke-linejoin:round;stroke-miterlimit:10;}
	.st2{fill:#FFFFFF;stroke:#6148DE;stroke-width:3.7;stroke-linecap:round;stroke-linejoin:round;stroke-miterlimit:10;}
	.st3{fill:none;stroke:#6148DE;stroke-width:3.7;stroke-miterlimit:10;}
	.st4{fill:none;stroke:#6148DE;stroke-width:1.5;stroke-miterlimit:10;}
	.st5{fill:#6148DE;stroke:#6148DE;stroke-width:2;stroke-miterlimit:10;}
	.st6{fill:#6148DE;stroke:#6148DE;stroke-miterlimit:10;}
	.st7{fill:#6148DE;stroke:#6148DE;stroke-width:2.5;stroke-miterlimit:10;}
</style>
<g>
	<g>
		<path class="st1" d="M31.1,135.8L31.1,135.8c0,4.1-3.3,12.9-7.4,12.9h-2.9c-4.1,0-7.4,3.3-7.4,7.4v74.1c0,4.1,3.3,7.4,7.4,7.4
			h41.4c4.1,0,7.4-3.3,7.4-7.4v-74.1c0-4.1-3.3-7.4-7.4-7.4h-2.5c-4.1,0-7.4-8.8-7.4-12.9v0"/>
		<polygon class="st1" points="28.7,134.9 28.7,122.7 54.1,122.7 54.1,135.3 		"/>
	</g>
	<g>
		<polygon class="st1" points="89,95.4 89,87.3 114.4,87.3 114.4,95.7 		"/>
		<polygon class="st1" points="94.4,62.3 109.5,62.3 109.5,87.7 93.8,87.7 		"/>
		<path class="st1" d="M88.9,95.7h22.2c10.7,0,19.3,8.7,19.3,19.3v122.6H69.6V115.1C69.6,104.4,78.2,95.7,88.9,95.7z"/>
		<path class="st1" d="M94.4,63.7h-9.1c-2.6,0-4.7,2.1-4.7,4.7v2.3h13.8V63.7z"/>
	</g>
	<polyline class="st1" points="13.3,168.6 40.1,168.6 40.1,213.2 13.3,213.2 	"/>
	<polyline class="st1" points="69.6,137.7 103.6,137.7 103.6,195.8 69.6,195.8 	"/>
	<path class="st1" d="M130.5,179.3h32.8c9,0,16.3,7.3,16.3,16.3v0c0,9-7.3,16.3-16.3,16.3h-32.8"/>
	<polyline class="st1" points="130.5,212.7 187.3,212.7 187.3,224.3 130.5,224.3 	"/>
	<polyline class="st1" points="130.5,225.5 180.5,225.5 177.2,237.7 130.5,237.7 	"/>
</g>
</svg>
