<?xml version="1.0" encoding="utf-8"?>
<!-- Generator: Adobe Illustrator 23.0.5, SVG Export Plug-In . SVG Version: 6.00 Build 0)  -->
<svg version="1.1" id="Layer_1" xmlns="http://www.w3.org/2000/svg" xmlns:xlink="http://www.w3.org/1999/xlink" x="0px" y="0px"
	 viewBox="0 0 200 300" style="enable-background:new 0 0 200 300;" xml:space="preserve">
<style type="text/css">
	.st0{fill:#6148DE;}
	.st1{fill:none;stroke:#6148DE;stroke-width:3.7;stroke-linecap:round;stroke-linejoin:round;stroke-miterlimit:10;}
	.st2{fill:#FFFFFF;stroke:#6148DE;stroke-width:3.7;stroke-linecap:round;stroke-linejoin:round;stroke-miterlimit:10;}
	.st3{fill:none;stroke:#6148DE;stroke-width:3.7;stroke-miterlimit:10;}
	.st4{fill:none;stroke:#6148DE;stroke-width:1.5;stroke-miterlimit:10;}
	.st5{fill:#6148DE;stroke:#6148DE;stroke-width:2;stroke-miterlimit:10;}
	.st6{fill:#6148DE;stroke:#6148DE;stroke-miterlimit:10;}
	.st7{fill:#6148DE;stroke:#6148DE;stroke-width:2.5;stroke-miterlimit:10;}
</style>
<g>
	<g>
		<path class="st0" d="M181,76.9c2.7,0,4.8,2.2,4.8,4.8v107.9c0,2.7-2.2,4.8-4.8,4.8H20.1c-2.7,0-4.8-2.2-4.8-4.8L15.1,81.8
			c0-2.7,2.2-4.8,4.8-4.8H181 M181,73.2H19.9c-2.3,0-4.4,0.9-6,2.5s-2.5,3.8-2.5,6l0.2,107.9c0,4.7,3.8,8.5,8.5,8.5H181
			c4.7,0,8.5-3.8,8.5-8.5V81.8C189.5,77.1,185.7,73.2,181,73.2L181,73.2z"/>
	</g>
	<line class="st1" x1="15.3" y1="179.4" x2="185.8" y2="179.4"/>
	<line class="st1" x1="94.6" y1="188.5" x2="106.4" y2="188.5"/>
	<g>
		<path class="st0" d="M135,212.9v7.3H66.1v-7.3H135 M135.9,209.2H65.2c-1.6,0-2.8,1.3-2.8,2.8v9c0,1.6,1.3,2.8,2.8,2.8h70.7
			c1.6,0,2.8-1.3,2.8-2.8v-9C138.7,210.5,137.4,209.2,135.9,209.2L135.9,209.2z"/>
	</g>
	<line class="st1" x1="82.2" y1="198.4" x2="80.4" y2="209.2"/>
	<line class="st1" x1="118.5" y1="198.4" x2="120.4" y2="209.2"/>
</g>
</svg>
