<?xml version="1.0" encoding="utf-8"?>
<!-- Generator: Adobe Illustrator 23.0.5, SVG Export Plug-In . SVG Version: 6.00 Build 0)  -->
<svg version="1.1" id="Layer_1" xmlns="http://www.w3.org/2000/svg" xmlns:xlink="http://www.w3.org/1999/xlink" x="0px" y="0px"
	 viewBox="0 0 200 300" style="enable-background:new 0 0 200 300;" xml:space="preserve">
<style type="text/css">
	.st0{fill:#6148DE;}
	.st1{fill:none;stroke:#6148DE;stroke-width:3.7;stroke-linecap:round;stroke-linejoin:round;stroke-miterlimit:10;}
	.st2{fill:#FFFFFF;stroke:#6148DE;stroke-width:3.7;stroke-linecap:round;stroke-linejoin:round;stroke-miterlimit:10;}
	.st3{fill:none;stroke:#6148DE;stroke-width:3.7;stroke-miterlimit:10;}
	.st4{fill:none;stroke:#6148DE;stroke-width:1.5;stroke-miterlimit:10;}
	.st5{fill:#6148DE;stroke:#6148DE;stroke-width:2;stroke-miterlimit:10;}
	.st6{fill:#6148DE;stroke:#6148DE;stroke-miterlimit:10;}
	.st7{fill:#6148DE;stroke:#6148DE;stroke-width:2.5;stroke-miterlimit:10;}
</style>
<g>
	<path class="st3" d="M98.8,61.4c9.5,10.8,69.5,32.4,69.5,32.4s28.5,100.7-67.4,144.9l0,0C4.9,194.5,32.4,93.8,32.4,93.8
		S92.8,72,102.3,61.3"/>
	<g>
		<g>
			<path class="st3" d="M80.1,136h40.8c3.1,0,5.6,2.5,5.6,5.6v36.2c0,3.1-2.5,5.6-5.6,5.6H80.1c-3.1,0-5.6-2.5-5.6-5.6v-36.2
				C74.5,138.5,77,136,80.1,136z"/>
			<path class="st3" d="M86.1,136v-15c0-8.1,6.6-14.7,14.7-14.7h0c8.1,0,14.7,6.6,14.7,14.7v15"/>
		</g>
		<line class="st1" x1="100.5" y1="160.5" x2="100.5" y2="167.3"/>
	</g>
</g>
</svg>
