<?xml version="1.0" encoding="utf-8"?>
<!-- Generator: Adobe Illustrator 23.0.5, SVG Export Plug-In . SVG Version: 6.00 Build 0)  -->
<svg version="1.1" id="Layer_1" xmlns="http://www.w3.org/2000/svg" xmlns:xlink="http://www.w3.org/1999/xlink" x="0px" y="0px"
	 viewBox="0 0 200 300" style="enable-background:new 0 0 200 300;" xml:space="preserve">
<style type="text/css">
	.st0{fill:#6148DE;}
	.st1{fill:none;stroke:#6148DE;stroke-width:3.7;stroke-linecap:round;stroke-linejoin:round;stroke-miterlimit:10;}
	.st2{fill:#FFFFFF;stroke:#6148DE;stroke-width:3.7;stroke-linecap:round;stroke-linejoin:round;stroke-miterlimit:10;}
	.st3{fill:none;stroke:#6148DE;stroke-width:3.7;stroke-miterlimit:10;}
	.st4{fill:none;stroke:#6148DE;stroke-width:1.5;stroke-miterlimit:10;}
	.st5{fill:#6148DE;stroke:#6148DE;stroke-width:2;stroke-miterlimit:10;}
	.st6{fill:#6148DE;stroke:#6148DE;stroke-miterlimit:10;}
	.st7{fill:#6148DE;stroke:#6148DE;stroke-width:2.5;stroke-miterlimit:10;}
</style>
<g>
	<g>
		<path class="st0" d="M138.5,66.3c3.5,0,6.4,2.9,6.4,6.4v157.2c0,3.5-2.9,6.4-6.4,6.4H61.5c-3.5,0-6.4-2.9-6.4-6.4V72.7
			c0-3.5,2.9-6.4,6.4-6.4H138.5 M138.5,62.6H61.5c-5.6,0-10.1,4.5-10.1,10.1v157.2c0,5.6,4.5,10.1,10.1,10.1h77.1
			c5.6,0,10.1-4.5,10.1-10.1V72.7C148.6,67.1,144.1,62.6,138.5,62.6L138.5,62.6z"/>
	</g>
	<polyline class="st1" points="85.9,64.5 89.6,73.6 110.4,73.6 114.1,64.5 	"/>
	<line class="st1" x1="91.5" y1="230.9" x2="108.5" y2="230.9"/>
</g>
</svg>
