<?xml version="1.0" encoding="utf-8"?>
<!-- Generator: Adobe Illustrator 23.0.5, SVG Export Plug-In . SVG Version: 6.00 Build 0)  -->
<svg version="1.1" id="Layer_1" xmlns="http://www.w3.org/2000/svg" xmlns:xlink="http://www.w3.org/1999/xlink" x="0px" y="0px"
	 viewBox="0 0 200 300" style="enable-background:new 0 0 200 300;" xml:space="preserve">
<style type="text/css">
	.st0{fill:#6148DE;}
	.st1{fill:none;stroke:#6148DE;stroke-width:3.7;stroke-linecap:round;stroke-linejoin:round;stroke-miterlimit:10;}
	.st2{fill:#FFFFFF;stroke:#6148DE;stroke-width:3.7;stroke-linecap:round;stroke-linejoin:round;stroke-miterlimit:10;}
	.st3{fill:none;stroke:#6148DE;stroke-width:3.7;stroke-miterlimit:10;}
	.st4{fill:none;stroke:#6148DE;stroke-width:1.5;stroke-miterlimit:10;}
	.st5{fill:#6148DE;stroke:#6148DE;stroke-width:2;stroke-miterlimit:10;}
	.st6{fill:#6148DE;stroke:#6148DE;stroke-miterlimit:10;}
	.st7{fill:#6148DE;stroke:#6148DE;stroke-width:2.5;stroke-miterlimit:10;}
</style>
<g>
	<path class="st0" d="M185.8,148.7c0-1.3,0-2.7,0-4C185.5,146,185.5,147.4,185.8,148.7z"/>
	<path class="st0" d="M185.8,148.7c-0.3-1.3-0.3-2.7,0-4C185.1,146,185.3,147.4,185.8,148.7z"/>
	<path class="st0" d="M185.8,155.4c0-1.3,0-2.7,0-4C185.5,152.7,185.5,154.1,185.8,155.4z"/>
	<path class="st0" d="M185.8,155.4c-0.3-1.3-0.3-2.7,0-4C185.3,152.7,185.1,154.1,185.8,155.4z"/>
	<g>
		<path class="st0" d="M100,68c45.2,0,82,36.8,82,82s-36.8,82-82,82s-82-36.8-82-82S54.7,68,100,68 M100,64.3
			c-47.3,0-85.7,38.4-85.7,85.7c0,47.3,38.4,85.7,85.7,85.7s85.7-38.4,85.7-85.7C185.7,102.7,147.3,64.3,100,64.3L100,64.3z"/>
	</g>
	<path class="st3" d="M137.9,75.1c3.1,4.4,24.9,99.1-65.1,153.9"/>
	<path class="st3" d="M29.9,103.2c0,0,54.4,77.1,140.5,90.7"/>
	<path class="st3" d="M17.7,166.7c23.7,27.2,126.9,11,111.8,61.2"/>
	<path class="st3" d="M82.4,67.7c30.9,7.4,21,143.2,98,59.8"/>
</g>
</svg>
