<?xml version="1.0" encoding="utf-8"?>
<!-- Generator: Adobe Illustrator 23.0.5, SVG Export Plug-In . SVG Version: 6.00 Build 0)  -->
<svg version="1.1" id="Layer_1" xmlns="http://www.w3.org/2000/svg" xmlns:xlink="http://www.w3.org/1999/xlink" x="0px" y="0px"
	 viewBox="0 0 200 300" style="enable-background:new 0 0 200 300;" xml:space="preserve">
<style type="text/css">
	.st0{fill:#6148DE;}
	.st1{fill:none;stroke:#6148DE;stroke-width:3.7;stroke-linecap:round;stroke-linejoin:round;stroke-miterlimit:10;}
	.st2{fill:#FFFFFF;stroke:#6148DE;stroke-width:3.7;stroke-linecap:round;stroke-linejoin:round;stroke-miterlimit:10;}
	.st3{fill:none;stroke:#6148DE;stroke-width:3.7;stroke-miterlimit:10;}
	.st4{fill:none;stroke:#6148DE;stroke-width:1.5;stroke-miterlimit:10;}
	.st5{fill:#6148DE;stroke:#6148DE;stroke-width:2;stroke-miterlimit:10;}
	.st6{fill:#6148DE;stroke:#6148DE;stroke-miterlimit:10;}
	.st7{fill:#6148DE;stroke:#6148DE;stroke-width:2.5;stroke-miterlimit:10;}
</style>
<g>
	<path class="st5" d="M136.2,141.4c12.7,0,23-10.3,23-23c0-12.7-10.3-23-23-23c-12.7,0-23,10.3-23,23
		C113.2,131.1,123.5,141.4,136.2,141.4z M136.2,97.5c11.5,0,20.9,9.4,20.9,20.9c0,11.5-9.4,20.9-20.9,20.9
		c-11.5,0-20.9-9.4-20.9-20.9C115.3,106.9,124.7,97.5,136.2,97.5z"/>
	<path class="st5" d="M88.5,95.4h-46v46h46L88.5,95.4L88.5,95.4z M86.3,139.3H44.6V97.5h41.7L86.3,139.3L86.3,139.3z"/>
	<path class="st6" d="M121.2,208.1l15-7.9l15,7.9l-2.9-16.7l12.1-11.8l-16.8-2.4l-7.5-15.2l-7.5,15.2l-16.8,2.4l12.1,11.8
		L121.2,208.1z M116.6,181.1l13.6-2l6.1-12.3l6.1,12.3l13.6,2l-9.8,9.6l2.3,13.5l-12.1-6.4l-12.1,6.4l2.3-13.5L116.6,181.1z"/>
	<path class="st5" d="M77.1,205.3l11.6-20.1l-11.6-20.1H53.9l-11.6,20.1l11.6,20.1H77.1z M55.1,167.3h20.7l10.3,17.9l-10.3,17.9
		H55.1l-10.3-17.9L55.1,167.3z"/>
	<path class="st7" d="M13.5,63.9v174.7h174.7V63.9H13.5z M186,236.5H15.6V66.1H186V236.5z"/>
</g>
</svg>
