<svg enable-background="new 0 0 200 300" viewBox="0 0 200 300" xmlns="http://www.w3.org/2000/svg"><g style="fill:none;stroke:#6148de;stroke-width:3.7;stroke-linecap:round;stroke-linejoin:round;stroke-miterlimit:10"><path d="m39.6 156.1h40.4v80.5h-9.8l-9.9-51.1-9.1 51.1h-11.6z"/><path d="m30.6 82.2 6.2 15.9 2.8 45.7h40.4l3.7-45.5 5.1-16.1"/><path d="m45.4 75.6 14.4 35.7 15.2-36.4"/><path d="m59.8 111.3v30.6"/><path d="m37 101-9.7 28.1h-13.8l12-46.9 20.6-9.1h31.9l17.3 9.1 12 46.9h-13.7l-9.8-28.1"/><path d="m45.4 72.5v-10.8h29.6v11.4"/><path d="m126.2 144.8-25.4 85 7.1 7.1c2.8 2.8 7.3 2.8 10.1 0l2.3-2.3c2.8-2.8 7.3-2.8 10.1 0l1.5 1.5c2.8 2.8 7.3 2.8 10.1 0 2.8-2.8 7.3-2.8 10.1 0l.5.5c2.8 2.8 7.3 2.8 10.1 0l.3-.3c2.8-2.8 7.3-2.8 10.1 0l.7.7c2.8 2.8 7.3 2.8 10.1 0l6-6-25.9-86.3"/><path d="m130.5 63.9v14.5"/><path d="m159.9 63.9v14.5"/><path d="m162.8 144.8h-35.1c-3.7 0-6.6-3-6.6-6.6v-.4c0-3.7 3-6.6 6.6-6.6h35.1c3.7 0 6.6 3 6.6 6.6v.4c0 3.6-3 6.6-6.6 6.6z"/><path d="m145.3 94.2c2.2-9.1 8.8-15 14.6-15s15.4 4.4 12.1 19.2c-3.2 14.8-9.4 32.8-9.4 32.8"/><path d="m145 94.2c-2.2-9.1-8.8-15-14.6-15s-15.4 4.4-12.1 19.2c3.2 14.8 9.4 32.8 9.4 32.8"/><path d="m123.7 232.7 16.8-87.9"/><path d="m146.7 233.1 1.4-88.3"/><path d="m168.3 234.1-13.5-89.3"/></g></svg>