<svg enable-background="new 0 0 200 300" viewBox="0 0 200 300" xmlns="http://www.w3.org/2000/svg"><g fill="#6148de"><path d="m180.7 96.4c-1.4.7-1.7 2.2-.8 3.9 5.5 10.2 5.8 20.8 2.6 31.8-3.4 12.1-10 22.4-17.8 32.1-14.2 17.5-31.2 31.8-49.6 44.7-1.9 1.3-2.9 1.2-4.9-.2-11.2-7.8-21.8-16.2-31.7-25.6-.9-.9-1.8-1.8-2.9-2.9h23.3c1.1 0 1 .7 1 1.4 0 3.1-.1 6.3 0 9.4.1 3.4 2.6 5.8 6 5.9h5.2c3.6 0 5.8-1.8 6.5-5.3.2-1 .6-1 1.3-1 1.9 0 3.7.1 5.6 0 3.2-.1 5.8-2.6 5.8-5.8.1-10.1.1-20.2 0-30.4 0-3.2-2.6-5.7-5.8-5.8-1.8-.1-3.6-.1-5.4 0-1 0-1.3-.1-1.5-1.2-.6-3.3-2.9-5-6.3-5.1-1.6 0-3.3 0-4.9 0-4.1 0-6.5 2.4-6.6 6.5 0 2.9-.1 5.8 0 8.7 0 1-.3 1.3-1.3 1.3-2.2-.1-4.4 0-6.6 0-1.9 0-3 1.1-3 2.7 0 1.5 1.2 2.5 2.9 2.5 2.2 0 4.3.1 6.5 0 1.1 0 1.5.2 1.5 1.4-.1 2.7-.1 5.5 0 8.2 0 1.1-.3 1.4-1.4 1.4-18.6 0-37.1 0-55.7 0-1 0-1.3-.3-1.3-1.3.1-2.7.1-5.5 0-8.2-.1-1.2.3-1.5 1.5-1.5 6.6.1 13.1 0 19.7 0h16.4c1.9 0 3-.8 3.1-2.3.2-1.7-1-2.9-3.1-2.9-7 0-14.1 0-21.1 0-.9 0-1.6-.2-2.2-1-3.7-5.3-7.1-10.8-9.6-16.7-4.1-9.5-6.4-19.2-4.6-29.7 3.4-19.8 23.8-34 43.5-30.3 9.2 1.7 16.8 6.1 22.8 13.3 1.1 1.3 2.4 2.2 4.1 2.4 2.6.3 4.2-1.1 5.8-2.9 7.3-8.4 16.6-12.9 27.7-13.3 10.2-.3 19 3.2 26.6 10 1.5 1.4 3 1.4 4.1.2s.9-2.7-.6-4c-6.7-6.1-14.4-10-23.4-11-15.1-1.8-28 3.2-38.3 14.9-.8 1-1.2.9-2.1 0-10-11.4-22.5-16.5-37.6-15-24.3 2.5-41.6 25.3-37.9 49.5 1.6 10.4 5.6 19.8 11 28.7 1 1.6 1.9 3.1 3 4.9-2.8 0-5.3 0-7.9 0-1 0-.8-.6-.8-1.2 0-3 0-5.9 0-8.9-.1-3.9-2.6-6.4-6.5-6.4-1.6 0-3.3 0-4.9 0-3.5 0-5.7 1.7-6.4 5.1-.2 1-.5 1.2-1.5 1.1-1.9-.1-3.7-.1-5.6 0-3.2.1-5.4 2.5-5.4 5.6v30.7c0 3.3 2.2 5.5 5.5 5.7 1.7.1 3.5.1 5.2 0 1.1-.1 1.6.3 1.8 1.4.6 3 2.9 4.8 5.9 4.9h5.1c4.4 0 6.7-2.4 6.8-6.8 0-2.8.1-5.6 0-8.4 0-1.3.4-1.5 1.6-1.5 7.9.1 15.7.1 23.6 0 1 0 1.7.4 2.4 1.1 11.7 11.9 24.5 22.3 38.1 31.7 3.8 2.6 7.1 2.7 11 .1 4.6-3.2 9.1-6.5 13.5-9.9 14.3-11.2 27.7-23.5 38.8-37.9 7.4-9.5 13.5-19.7 16.9-31.4 3.5-12.3 3.3-24.3-3-35.8-.9-1.8-2.3-2.3-3.7-1.6zm-62.9 58.8c0-1 .4-1.3 1.4-1.3 1.5 0 2.9.1 4.4 0 1.3-.1 1.7.4 1.7 1.7-.1 4.7 0 9.4 0 14.1 0 4.6-.1 9.3 0 13.9 0 1.5-.5 1.9-1.9 1.8s-2.8-.1-4.2 0c-1 0-1.4-.4-1.4-1.3 0-9.6 0-19.3 0-28.9zm-10.9-7.6c1.3.1 2.7.1 4 0s1.7.5 1.7 1.7v20.4 20.1c0 1.5-.4 2-1.9 1.9-1.3-.1-2.6-.1-3.8 0-1.4.1-1.8-.5-1.8-1.8 0-13.5 0-27 0-40.5 0-1.3.4-1.9 1.8-1.8zm-72.5 44.1c-1.2-.1-2.4-.1-3.7 0-1.5.1-1.9-.5-1.9-1.9.1-6 0-12.1 0-18.1 0-.5 0-.9 0-1.4-.1-1.7-1.1-2.7-2.6-2.7s-2.5 1-2.6 2.7c-.1 1.5 0 2.9 0 4.4v9.2c0 1.2-.4 1.7-1.6 1.6-1.5-.1-2.9-.1-4.4 0-1 0-1.5-.4-1.5-1.4 0-9.6 0-19.2 0-28.8 0-1 .4-1.4 1.3-1.4 1.6 0 3.1.1 4.7 0 1.1 0 1.4.5 1.4 1.5 0 .8-.1 1.6 0 2.4.1 1.7 1.3 2.8 2.8 2.8 1.4-.1 2.4-1.2 2.4-2.8 0-2.8.1-5.6 0-8.4 0-1.3.4-1.8 1.7-1.7s2.7.1 4 0c1.4-.1 1.8.5 1.8 1.8-.1 6.8 0 13.6 0 20.4v19.9c.2 1.4-.2 2.1-1.8 1.9z"/><path d="m130.5 119.2c-6.7 0-13.5 0-20.2 0-1.3 0-1.8-.4-2.1-1.6-.9-3.5-2.1-7-3.2-10.5-.7-2.2-2.9-2.9-4.4-1.5-.6.6-.7 1.3-1 2-2.6 8.5-5.2 17-7.7 25.4-.2.6-.2 1.4-.9 2-.1-.3-.1-.4-.2-.6-1.8-6-3.7-11.9-5.5-17.9-.5-1.8-1.6-2.5-3.4-2.5-8.1 0-16.2 0-24.2 0-.5 0-1 0-1.5.2-1.3.4-1.9 1.3-1.8 2.6s.8 2.2 2.2 2.3c.6.1 1.2.1 1.7.1h17.4c1.6 0 3.6-.5 4.8.2 1.2.8 1.2 3 1.7 4.6 2.1 6.9 4.2 13.7 6.3 20.6.6 2.1 1.9 2.9 3.6 2.3 1.2-.4 1.6-1.4 1.9-2.5 2.6-8.5 5.2-17.1 7.8-25.6.2-.6.1-1.4.8-1.9.5 1.6 1 3.1 1.4 4.7.8 2.4 1.2 2.8 3.7 2.8h23c.5 0 .9 0 1.4-.1 1.3-.2 2.1-1.1 2.1-2.4.1-1.3-.5-2.3-1.8-2.6-.6-.1-1.3-.1-1.9-.1z"/></g></svg>