<svg enable-background="new 0 0 200 300" viewBox="0 0 200 300" xmlns="http://www.w3.org/2000/svg"><g style="fill:none;stroke:#6148de;stroke-width:3.7;stroke-linecap:round;stroke-linejoin:round;stroke-miterlimit:10"><path d="m31.1 135.8c0 4.1-3.3 12.9-7.4 12.9h-2.9c-4.1 0-7.4 3.3-7.4 7.4v74.1c0 4.1 3.3 7.4 7.4 7.4h41.4c4.1 0 7.4-3.3 7.4-7.4v-74.1c0-4.1-3.3-7.4-7.4-7.4h-2.5c-4.1 0-7.4-8.8-7.4-12.9"/><path d="m28.7 134.9v-12.2h25.4v12.6z"/><path d="m89 95.4v-8.1h25.4v8.4z"/><path d="m94.4 62.3h15.1v25.4h-15.7z"/><path d="m88.9 95.7h22.2c10.7 0 19.3 8.7 19.3 19.3v122.6h-60.8v-122.5c0-10.7 8.6-19.4 19.3-19.4z"/><path d="m94.4 63.7h-9.1c-2.6 0-4.7 2.1-4.7 4.7v2.3h13.8z"/><path d="m13.3 168.6h26.8v44.6h-26.8"/><path d="m69.6 137.7h34v58.1h-34"/><path d="m130.5 179.3h32.8c9 0 16.3 7.3 16.3 16.3 0 9-7.3 16.3-16.3 16.3h-32.8"/><path d="m130.5 212.7h56.8v11.6h-56.8"/><path d="m130.5 225.5h50l-3.3 12.2h-46.7"/></g></svg>