<svg enable-background="new 0 0 200 300" viewBox="0 0 200 300" xmlns="http://www.w3.org/2000/svg"><path d="m61.5 76.8v25h-33.8v-25zm.7-3.7h-35.2c-1.7 0-3 1.4-3 3v26.3c0 1.7 1.4 3 3 3h35.2c1.7 0 3-1.4 3-3v-26.3c0-1.7-1.3-3-3-3z" fill="#6148de"/><path d="m96.8 65v48.6h-80.9v-48.6zm.8-3.7h-82.4c-1.6 0-3 1.3-3 3v50c0 1.6 1.3 3 3 3h82.4c1.6 0 3-1.3 3-3v-50c-.1-1.7-1.4-3-3-3z" fill="#6148de"/><path d="m91 70.9v36.8h-10.3v-36.8zm2.6-3.7h-15.5c-.6 0-1.1.5-1.1 1.1v42c0 .6.5 1.1 1.1 1.1h15.5c.6 0 1.1-.5 1.1-1.1v-42c0-.7-.5-1.1-1.1-1.1z" fill="#6148de"/><path d="m84.6 73.7h2.4c.6 0 1.1.5 1.1 1.1v2.4c0 .6-.5 1.1-1.1 1.1h-2.4c-.6 0-1.1-.5-1.1-1.1v-2.4c.1-.6.5-1.1 1.1-1.1z" fill="#6148de"/><path d="m84.6 85.5h2.4c.6 0 1.1.5 1.1 1.1v2.4c0 .6-.5 1.1-1.1 1.1h-2.4c-.6 0-1.1-.5-1.1-1.1v-2.4c.1-.6.5-1.1 1.1-1.1z" fill="#6148de"/><g fill="none" stroke="#6148de" stroke-miterlimit="10"><circle cx="85.8" cy="102.5" r="2.9" stroke-width="1.5"/><path d="m18 125.4h76.4c2.1 0 3.7 1.7 3.7 3.7v98.9c0 2.1-1.7 3.7-3.7 3.7h-76.4c-2.1 0-3.7-1.7-3.7-3.7v-98.9c-.1-2 1.6-3.7 3.7-3.7z" stroke-width="3.7"/><path d="m21.1 238v-6.2" stroke-width="3.7"/><path d="m91.7 238v-6.2" stroke-width="3.7"/><path d="m15.7 149.7h80.5" stroke-width="3.7"/><path d="m71.1 137.8h17.7" stroke-linecap="round" stroke-linejoin="round" stroke-width="3.7"/><path d="m64.8 184.1v9.5" stroke-linecap="round" stroke-linejoin="round" stroke-width="3.7"/></g><path d="m51.7 139.6h-2.5c-.4 0-.7-.3-.7-.7v-2.4c0-.4.3-.7.7-.7h2.5c.4 0 .7.3.7.7v2.4c0 .4-.3.7-.7.7z" fill="#6148de"/><path d="m39.9 139.6h-2.5c-.4 0-.7-.3-.7-.7v-2.4c0-.4.3-.7.7-.7h2.5c.4 0 .7.3.7.7v2.4c0 .4-.3.7-.7.7z" fill="#6148de"/><path d="m28.1 139.6h-2.5c-.4 0-.7-.3-.7-.7v-2.4c0-.4.3-.7.7-.7h2.5c.4 0 .7.3.7.7v2.4c0 .4-.3.7-.7.7z" fill="#6148de"/><circle cx="56.4" cy="187.9" fill="none" r="29.3" stroke="#6148de" stroke-miterlimit="10" stroke-width="3.7"/><circle cx="56.4" cy="187.9" fill="none" r="17.5" stroke="#6148de" stroke-miterlimit="10" stroke-width="3.7"/><path d="m124.1 83.1v26.9" style="fill:none;stroke:#6148de;stroke-width:3.7;stroke-linecap:round;stroke-linejoin:round;stroke-miterlimit:10"/><path d="m124.1 131.7v36" style="fill:none;stroke:#6148de;stroke-width:3.7;stroke-linecap:round;stroke-linejoin:round;stroke-miterlimit:10"/><path d="m185.2 65v163.1h-75v-163.1zm3.7-3.7h-79.5c-1.6 0-2.9 1.3-2.9 2.9v167.5h82.4z" fill="#6148de"/><path d="m108.3 119.7h78.1" style="fill:none;stroke:#6148de;stroke-width:3.7;stroke-linecap:round;stroke-linejoin:round;stroke-miterlimit:10"/></svg>