<svg enable-background="new 0 0 200 300" viewBox="0 0 200 300" xmlns="http://www.w3.org/2000/svg"><path d="m181 76.9c2.7 0 4.8 2.2 4.8 4.8v107.9c0 2.7-2.2 4.8-4.8 4.8h-160.9c-2.7 0-4.8-2.2-4.8-4.8l-.2-107.8c0-2.7 2.2-4.8 4.8-4.8h161.1m0-3.8h-161.1c-2.3 0-4.4.9-6 2.5s-2.5 3.8-2.5 6l.2 107.9c0 4.7 3.8 8.5 8.5 8.5h160.9c4.7 0 8.5-3.8 8.5-8.5v-107.8c0-4.7-3.8-8.6-8.5-8.6z" fill="#6148de"/><path d="m15.3 179.4h170.5" style="fill:none;stroke:#6148de;stroke-width:3.7;stroke-linecap:round;stroke-linejoin:round;stroke-miterlimit:10"/><path d="m94.6 188.5h11.8" style="fill:none;stroke:#6148de;stroke-width:3.7;stroke-linecap:round;stroke-linejoin:round;stroke-miterlimit:10"/><path d="m135 212.9v7.3h-68.9v-7.3zm.9-3.7h-70.7c-1.6 0-2.8 1.3-2.8 2.8v9c0 1.6 1.3 2.8 2.8 2.8h70.7c1.6 0 2.8-1.3 2.8-2.8v-9c0-1.5-1.3-2.8-2.8-2.8z" fill="#6148de"/><g style="fill:none;stroke:#6148de;stroke-width:3.7;stroke-linecap:round;stroke-linejoin:round;stroke-miterlimit:10"><path d="m82.2 198.4-1.8 10.8"/><path d="m118.5 198.4 1.9 10.8"/></g></svg>