<svg enable-background="new 0 0 200 300" viewBox="0 0 200 300" xmlns="http://www.w3.org/2000/svg"><g fill="none" stroke="#6148de" stroke-miterlimit="10" stroke-width="3.7"><path d="m98.8 61.4c9.5 10.8 69.5 32.4 69.5 32.4s28.5 100.7-67.4 144.9c-96-44.2-68.5-144.9-68.5-144.9s60.4-21.8 69.9-32.5"/><path d="m80.1 136h40.8c3.1 0 5.6 2.5 5.6 5.6v36.2c0 3.1-2.5 5.6-5.6 5.6h-40.8c-3.1 0-5.6-2.5-5.6-5.6v-36.2c0-3.1 2.5-5.6 5.6-5.6z"/><path d="m86.1 136v-15c0-8.1 6.6-14.7 14.7-14.7 8.1 0 14.7 6.6 14.7 14.7v15"/><path d="m100.5 160.5v6.8" stroke-linecap="round" stroke-linejoin="round"/></g></svg>