<svg enable-background="new 0 0 200 300" viewBox="0 0 200 300" xmlns="http://www.w3.org/2000/svg"><path d="m138.5 66.3c3.5 0 6.4 2.9 6.4 6.4v157.2c0 3.5-2.9 6.4-6.4 6.4h-77c-3.5 0-6.4-2.9-6.4-6.4v-157.2c0-3.5 2.9-6.4 6.4-6.4zm0-3.7h-77c-5.6 0-10.1 4.5-10.1 10.1v157.2c0 5.6 4.5 10.1 10.1 10.1h77.1c5.6 0 10.1-4.5 10.1-10.1v-157.2c-.1-5.6-4.6-10.1-10.2-10.1z" fill="#6148de"/><g style="fill:none;stroke:#6148de;stroke-width:3.7;stroke-linecap:round;stroke-linejoin:round;stroke-miterlimit:10"><path d="m85.9 64.5 3.7 9.1h20.8l3.7-9.1"/><path d="m91.5 230.9h17"/></g></svg>