<svg enable-background="new 0 0 200 300" viewBox="0 0 200 300" xmlns="http://www.w3.org/2000/svg"><g fill="#6148de"><path d="m185.8 148.7c0-1.3 0-2.7 0-4-.3 1.3-.3 2.7 0 4z"/><path d="m185.8 148.7c-.3-1.3-.3-2.7 0-4-.7 1.3-.5 2.7 0 4z"/><path d="m185.8 155.4c0-1.3 0-2.7 0-4-.3 1.3-.3 2.7 0 4z"/><path d="m185.8 155.4c-.3-1.3-.3-2.7 0-4-.5 1.3-.7 2.7 0 4z"/><path d="m100 68c45.2 0 82 36.8 82 82s-36.8 82-82 82-82-36.8-82-82 36.7-82 82-82m0-3.7c-47.3 0-85.7 38.4-85.7 85.7s38.4 85.7 85.7 85.7 85.7-38.4 85.7-85.7-38.4-85.7-85.7-85.7z"/></g><path d="m137.9 75.1c3.1 4.4 24.9 99.1-65.1 153.9" fill="none" stroke="#6148de" stroke-miterlimit="10" stroke-width="3.7"/><path d="m29.9 103.2s54.4 77.1 140.5 90.7" fill="none" stroke="#6148de" stroke-miterlimit="10" stroke-width="3.7"/><path d="m17.7 166.7c23.7 27.2 126.9 11 111.8 61.2" fill="none" stroke="#6148de" stroke-miterlimit="10" stroke-width="3.7"/><path d="m82.4 67.7c30.9 7.4 21 143.2 98 59.8" fill="none" stroke="#6148de" stroke-miterlimit="10" stroke-width="3.7"/></svg>