<svg enable-background="new 0 0 200 300" viewBox="0 0 200 300" xmlns="http://www.w3.org/2000/svg"><g fill="#6148de" stroke="#6148de" stroke-miterlimit="10"><path d="m136.2 141.4c12.7 0 23-10.3 23-23s-10.3-23-23-23-23 10.3-23 23 10.3 23 23 23zm0-43.9c11.5 0 20.9 9.4 20.9 20.9s-9.4 20.9-20.9 20.9-20.9-9.4-20.9-20.9 9.4-20.9 20.9-20.9z" stroke-width="2"/><path d="m88.5 95.4h-46v46h46zm-2.2 43.9h-41.7v-41.8h41.7z" stroke-width="2"/><path d="m121.2 208.1 15-7.9 15 7.9-2.9-16.7 12.1-11.8-16.8-2.4-7.5-15.2-7.5 15.2-16.8 2.4 12.1 11.8zm-4.6-27 13.6-2 6.1-12.3 6.1 12.3 13.6 2-9.8 9.6 2.3 13.5-12.1-6.4-12.1 6.4 2.3-13.5z"/><path d="m77.1 205.3 11.6-20.1-11.6-20.1h-23.2l-11.6 20.1 11.6 20.1zm-22-38h20.7l10.3 17.9-10.3 17.9h-20.7l-10.3-17.9z" stroke-width="2"/><path d="m13.5 63.9v174.7h174.7v-174.7zm172.5 172.6h-170.4v-170.4h170.4z" stroke-width="2.5"/></g></svg>